<?xml version="1.0" encoding="UTF-8" standalone="no"?>
<svg
   xmlns:dc="http://purl.org/dc/elements/1.1/"
   xmlns:cc="http://creativecommons.org/ns#"
   xmlns:rdf="http://www.w3.org/1999/02/22-rdf-syntax-ns#"
   xmlns:svg="http://www.w3.org/2000/svg"
   xmlns="http://www.w3.org/2000/svg"
   xmlns:sodipodi="http://sodipodi.sourceforge.net/DTD/sodipodi-0.dtd"
   xmlns:inkscape="http://www.inkscape.org/namespaces/inkscape"
   width="15.867651mm"
   height="14.291883mm"
   viewBox="0 0 15.867651 14.291883"
   version="1.1"
   id="svg8"
   inkscape:version="1.0.2 (e86c8708, 2021-01-15)"
   sodipodi:docname="bb-logo.svg">
  <defs
     id="defs2" />
  <sodipodi:namedview
     id="base"
     pagecolor="#ffffff"
     bordercolor="#666666"
     borderopacity="1.0"
     inkscape:pageopacity="0.0"
     inkscape:pageshadow="2"
     inkscape:zoom="10.329913"
     inkscape:cx="32.147123"
     inkscape:cy="26.389157"
     inkscape:document-units="mm"
     inkscape:current-layer="g916"
     inkscape:document-rotation="0"
     showgrid="false"
     inkscape:window-width="1252"
     inkscape:window-height="855"
     inkscape:window-x="76"
     inkscape:window-y="23"
     inkscape:window-maximized="0" />
  <metadata
     id="metadata5">
    <rdf:RDF>
      <cc:Work
         rdf:about="">
        <dc:format>image/svg+xml</dc:format>
        <dc:type
           rdf:resource="http://purl.org/dc/dcmitype/StillImage" />
        <dc:title></dc:title>
      </cc:Work>
    </rdf:RDF>
  </metadata>
  <g
     inkscape:label="Layer 1"
     inkscape:groupmode="layer"
     id="layer1"
     transform="translate(-89.584031,-150.13478)">
    <g
       id="g916"
       transform="matrix(0.26458333,0,0,0.26458333,89.063835,148.00845)">
      <path
         d="m 28.5,25.1 c 4.147241,20.999015 5.81232,30.911042 6.2,35.117354 C 35.4,64.117354 59.7,60.2 59,56.2 L 57.7,49 c 2.5,-1.9 4,-5.2 4.2,-8 C 62.1,38.1 61.5,32.5 60.5,29.7 59.7,27.5 56.6,27.8 54,28.4 L 52.7,21 28.5,25.1 M 57.1,45.2 54.7,31.6 c 1.5,-0.3 3,-0.3 3.4,0.8 0.8,2.5 0.9,6.4 0.8,9 -0.2,1.4 -0.8,2.7 -1.8,3.8 M 32.4,41.5 51.5,23.3 56.9,53.7 c 0.6,3.2 -20.394215,6.617354 -20.994215,3.417354 l -1.631393,-8.447865"
         opacity="0.8"
         fill="#a1b8c7"
         id="path833"
         sodipodi:nodetypes="ccccccccccccccccccc" />
      <path
         d="m 52.2,34.1 -18.7,3.3 3.3,18.9 C 37.3,59.2 56,55.9 55.5,53 L 52.2,34.1"
         fill="#fdb73e"
         id="path835" />
      <path
         d="m 26.6,26.5 c -0.3,-4.2 5,-7.2 8.9,-5.5 1.3,-3.6 5.9,-3.6 7.9,-1.8 1.6,-0.9 5.2,-1.5 7.1,0.5 3.9,-1.6 7.2,4.6 1,5.3 -9,-1.5 -19.1,16.5 -19.1,16.5 -1.7,0.3 -4,-0.5 -3.5,-3.2 -1,0.1 -2.6,-1.6 -2.2,-3.2 -4.1,-1.1 -3.8,-7.5 -0.1,-8.6"
         fill="#d8d2b8"
         id="path837" />
      <path
         d="m 27.4,26.9 c -0.3,-4.7 5.9,-6.4 8.7,-5.3 1,-2.7 5,-3.9 7.3,-1.7 1.2,-0.8 5,-1.6 6.8,0.3 4.2,-1.7 6.2,5 0.4,4.9 l 1.6,9 -13.6,2.4 c -0.1,1 -1.5,2 -3.2,1.7 0.3,1.7 -1.4,3.2 -3,3.4 -1.9,0.2 -3.544833,-0.803416 -2.744833,-2.903416 C 27.855167,38.696584 27.2,36.3 27.6,34.9 c -3.9,-1 -3.9,-7.2 -0.2,-8"
         fill="#ffffff"
         id="path839"
         sodipodi:nodetypes="cccccccccccc" />
      <g
         fill="#fee0af"
         id="g849">
        <path
           d="m 46.6,37 c 2.1,-0.4 4.2,1 4.5,3 0.4,2.1 -1.1,4 -3.2,4.4 -2.1,0.4 -4.2,-1 -4.5,-3 -0.4,-2 1.1,-4 3.2,-4.4"
           id="path841" />
        <ellipse
           transform="matrix(0.9848,-0.1736,0.1736,0.9848,-7.6637,8.1429)"
           cx="42.700001"
           cy="47.900002"
           rx="3"
           ry="2.8"
           id="ellipse843" />
        <ellipse
           transform="matrix(0.9848,-0.1735,0.1735,0.9848,-7.8355,9.2385)"
           cx="48.900002"
           cy="49.400002"
           rx="2"
           ry="1.9"
           id="ellipse845" />
        <path
           d="m 45.1,52.8 c 0.8,-0.1 1.5,0.3 1.6,1.1 0.1,0.7 -0.4,1.4 -1.1,1.5 -0.8,0.1 -1.5,-0.3 -1.6,-1.1 -0.2,-0.6 0.3,-1.3 1.1,-1.5"
           id="path847" />
      </g>
      <path
         d="m 12.2,11.1 -1.4,8.2 C 7.9,18.6 4.5,18.4 3.7,20.8 2.5,23.9 1.8,30.1 2,33.2 2.2,36.4 3.9,39.9 6.7,42 L 5.3,50 C 4.5,54.3 31.2,59 32,54.7 L 38.9,15.8 12.2,11.1 M 5.5,33.9 C 5.3,31 5.4,26.7 6.4,24 c 0.4,-1.2 2,-1.3 3.7,-0.9 L 7.4,38 C 6.3,36.8 5.6,35.3 5.5,33.9 M 30.7,51.4 C 30.1,54.9 7.1,50.9 7.8,47.4 l 5.9,-33.5 23,4 L 33.137917,35.396472 31.74825,41.306889 30.7,51.4"
         opacity="0.8"
         fill="#a1b8c7"
         id="path851"
         sodipodi:nodetypes="ccccccccccccccccccccc" />
      <path
         d="m 12.8,25.7 20.5,3.6 -3.913806,20.679306 C 28.786194,53.079306 8.6,49.6 9.2,46.5 l 3.6,-20.8"
         fill="#fdb73e"
         id="path853"
         sodipodi:nodetypes="ccccc" />
      <path
         d="m 41,17.4 c 0.3,-4.7 -5.5,-7.9 -9.8,-6.1 -1.4,-3.9 -6.5,-4 -8.7,-1.9 -1.8,-1 -5.8,-1.7 -7.8,0.6 -4.3,-1.8 -7.9,5.1 -1.1,5.8 10,-1.7 21,18.2 21,18.2 1.9,0.3 4.4,-0.6 3.8,-3.6 1.1,0.2 2.8,-1.8 2.5,-3.5 4.4,-1.2 4.1,-8.3 0.1,-9.5"
         fill="#d8d2b8"
         id="path855" />
      <path
         d="M 40,17.9 C 40.3,12.7 33.5,10.8 30.5,12.1 29.4,9.2 25,7.8 22.4,10.2 21.1,9.3 17,8.4 15,10.5 10.4,8.7 8.1,16 14.5,15.9 l -1.7,9.9 15,2.6 c 0.1,1.1 1.7,2.2 3.5,1.9 -0.4,1.9 1.5,3.6 3.3,3.8 2,0.2 3.8,-1.8 2.8,-4 2,0 2.8,-1.8 2.4,-3.3 4.3,-1.3 4.3,-8.1 0.2,-8.9"
         fill="#ffffff"
         id="path857" />
      <g
         fill="#d8d2b8"
         id="g863">
        <path
           d="m 32.7,14.9 c 0.2,-1.8 -1.2,-4 -4.5,-3.3 -0.4,-0.8 -1.3,-1.2 -2.7,-0.4 1.6,0 2.1,0.5 2.4,1.3 3.3,0 3.6,3 3.6,3 0,0 1.4,0.1 1.8,1.9 0.6,-0.8 0.5,-2 -0.6,-2.5"
           id="path859" />
        <path
           d="M 34.5,22.3 C 32.1,20 29.7,21 28.9,22.6 c -1.2,-0.2 -1.9,0.7 -2,1.6 1.4,-1.3 2.6,-0.6 2.6,-0.6 0,0 1.9,-2.3 4.7,-0.5 0.7,-0.6 1.4,-0.6 2.7,0.2 -0.7,-1.3 -1.6,-1.4 -2.4,-1"
           id="path861" />
      </g>
      <g
         fill="#fee0af"
         id="g873">
        <path
           d="m 18.9,28.9 c -2.4,-0.4 -4.6,1.1 -5,3.3 -0.4,2.3 1.2,4.4 3.6,4.9 2.4,0.4 4.6,-1.1 5,-3.3 0.4,-2.3 -1.2,-4.4 -3.6,-4.9"
           id="path865" />
        <ellipse
           transform="matrix(0.1733,-0.9849,0.9849,0.1733,-21.1092,56.6803)"
           cx="23.200001"
           cy="40.900002"
           rx="3.0999999"
           ry="3.3"
           id="ellipse867" />
        <path
           d="m 16.7,40.6 c -1.2,-0.2 -2.3,0.5 -2.5,1.7 -0.2,1.1 0.6,2.2 1.8,2.4 1.2,0.2 2.3,-0.5 2.5,-1.7 0.2,-1.1 -0.6,-2.2 -1.8,-2.4"
           id="path869" />
        <path
           d="m 20.6,46.4 c -0.8,-0.1 -1.6,0.4 -1.8,1.2 -0.1,0.8 0.4,1.5 1.2,1.7 0.8,0.1 1.6,-0.4 1.8,-1.2 0.2,-0.8 -0.3,-1.6 -1.2,-1.7"
           id="path871" />
      </g>
    </g>
  </g>
</svg>
